<?xml version="1.0" encoding="UTF-8"?>
<svg width="172px" height="57px" viewBox="0 0 172 57" version="1.1" xmlns="http://www.w3.org/2000/svg" xmlns:xlink="http://www.w3.org/1999/xlink">
    <title>Group-2 Copy 4</title>
    <g id="Page-1" stroke="none" stroke-width="1" fill="none" fill-rule="evenodd">
        <g id="Group-2-Copy-4" transform="translate(0.1109, 0.1252)" fill="#000000">
            <path d="M32.7642973,0.149970815 C36.9425345,1.00980609 39.3386429,5.19766693 38.7480488,10.4784557 C38.0240856,16.9522741 35.7996137,22.2878122 33.4219303,26.3425543 C35.2722317,26.4397886 37.1116198,27.1134734 38.5715934,28.5688653 C40.0497086,30.0422846 40.9271667,32.104078 41.2259362,34.5873148 C41.441226,36.3778457 41.2932585,38.2830706 41.0751341,40.0362692 C40.9645838,40.9248632 40.8296556,41.8189931 40.7009637,42.6701127 L40.6954361,42.7065934 C40.5668859,43.5561516 40.4451388,44.3612802 40.3472025,45.1398644 C40.1441016,46.7540961 40.0752202,48.0367374 40.212983,49.0201525 C40.3450765,49.9631125 40.622728,50.3385647 40.8791198,50.5347368 C41.3241559,50.8751279 42.1300398,51.1878391 43.4027864,51.3013974 C44.6453442,51.4121168 46.1265775,51.3137469 47.6992274,51.0343934 C49.9350378,50.6372232 52.1335729,49.9159858 53.8306629,49.1284588 C52.0814158,46.6070381 51.3587282,43.5457894 51.3514999,40.641819 C51.3412953,36.5992845 52.7020569,32.3899611 55.1944009,29.5241747 C58.5154475,25.7053501 63.3130502,24.7003589 67.0899044,26.3807382 C68.9743631,27.2192246 70.5504145,28.7170589 71.4287231,30.7535856 C72.3081655,32.7926673 72.4157395,35.1962713 71.6900755,37.7523274 C70.1243704,43.2672876 66.2429185,47.2517655 62.5631502,49.7913555 C67.3059029,51.8478969 74.9394061,51.978347 82.2296362,44.3906634 C81.7242226,41.9268735 81.5989321,39.5635827 81.6381917,37.8163459 C81.6389003,37.7882402 81.6400342,37.7601345 81.6414515,37.7321708 C81.6389003,37.685186 81.6376248,37.6376334 81.6376248,37.5899389 C81.6376248,31.172048 81.9919529,26.6515749 83.6714681,18.2411611 C84.8858215,12.1594029 86.9010981,7.362841 89.3923082,4.29032168 C91.8455343,1.26490068 95.415461,-0.705208571 99.114363,1.07843791 C102.455394,2.6895467 103.288065,6.37606171 103.269356,9.86183398 C103.249656,13.5062046 102.321741,18.1041814 100.889689,23.2317658 C98.4670764,31.9057768 91.3214122,41.5162182 88.1720021,45.4941664 C88.0849792,45.6041761 87.9907279,45.7049591 87.8903822,45.7966574 C88.0200663,46.1671415 88.1627896,46.5310959 88.3192609,46.8849721 C89.5672045,49.7047673 91.5035368,51.5625816 94.7406785,51.6436338 C99.1702051,51.7544952 103.074334,49.7535974 106.38631,46.9444482 C107.208068,46.247342 107.980928,45.5107743 108.703049,44.7608635 C108.592498,44.3815787 108.492153,43.9954804 108.401303,43.6035622 C108.224989,42.8865833 108.091478,42.1696044 108.004314,41.4615682 C107.542979,38.2308338 107.610017,34.7112353 107.932031,31.2633205 C108.405838,26.1895344 109.463295,20.9848723 110.473839,16.5776735 C111.623279,11.5642153 113.428652,7.3936437 115.661344,4.59278429 C117.831675,1.87016658 121.008581,-0.185608242 124.559799,1.03477473 C125.687838,1.42243447 126.779452,2.04865188 127.665839,3.05756085 C128.551518,4.06576009 129.100301,5.30600157 129.380504,6.7145365 C129.91809,9.41654338 129.520251,13.0278402 128.332401,17.7711716 C126.217062,26.2173562 121.241303,36.1725891 118.29301,40.7495575 C118.270758,40.7840508 118.247656,40.8179764 118.224129,40.8510503 C118.174665,40.9509816 118.118255,41.0486418 118.054618,41.1436049 C117.200829,42.4170196 116.051956,44.0521176 114.624297,45.7810432 C115.016467,46.5557949 115.471424,47.3013053 115.980381,47.9884751 C117.672511,50.2734107 119.63067,51.4992728 121.428247,51.5740794 C124.451091,51.6997033 127.013167,50.6474434 129.275906,48.3705989 C131.611779,46.0202254 133.665039,42.3153849 135.336618,37.1562881 C135.366098,37.0650156 135.400113,36.976582 135.438381,36.8912713 C135.453971,36.7484717 135.482317,36.6049624 135.523419,36.4621628 C136.035069,34.6679412 137.212856,32.0721397 139.168747,29.8747861 C141.152985,27.6447844 144.099577,25.6663144 148.038289,25.6663144 C148.165847,25.6663144 148.29057,25.667308 148.413876,25.6691534 C148.453561,25.667308 148.494663,25.6663144 148.534348,25.6663144 C149.296862,25.6663144 150.016857,25.7211063 150.698584,25.8250122 C151.602829,25.9414095 152.403611,26.1182766 153.13211,26.3439737 C154.509737,26.7713789 155.517446,27.3420095 156.318228,27.8249163 C156.442951,27.9008584 156.560588,27.9718324 156.669721,28.038264 L156.672556,28.0399674 L156.672556,28.0401093 C157.291922,28.4164132 157.673179,28.6483561 158.149396,28.8337401 C158.631282,29.0209694 159.266238,29.1722859 160.302293,29.1450319 C163.564947,29.0590114 166.323037,26.7172967 167.225865,25.5724868 C168.098929,24.4654351 169.703327,24.2772121 170.808831,25.1521791 C171.914334,26.027146 172.102837,27.6339964 171.228355,28.7410481 C169.818129,30.5300176 165.790127,34.1122151 160.436938,34.2533113 C160.27253,34.2577117 160.112373,34.2591312 159.955052,34.2578537 C160.628275,36.5452023 160.733156,38.8453263 160.578669,40.5785103 C160.509221,43.1036217 159.796313,46.8297543 157.800737,50.0745416 C155.714453,53.4673806 152.179676,56.3653892 146.734361,56.6085459 C144.068396,56.7274983 141.749673,56.1513317 139.853309,54.916101 C137.965449,53.6862643 136.682781,51.9249746 135.872078,49.9827013 C135.717591,49.6136368 135.580112,49.2357714 135.456806,48.8506667 C134.663394,50.0071164 133.81003,51.0519949 132.892321,51.9755081 C129.698407,55.1892088 125.776278,56.8693042 121.216501,56.6798038 C117.265175,56.51557 114.050002,53.9599399 111.882222,51.032832 C111.563327,50.6020201 111.25988,50.1543164 110.9733,49.6929856 C110.557177,50.0830585 110.127306,50.4677373 109.683829,50.8438993 C105.826471,54.1157987 100.742572,56.9056429 94.6131204,56.7521972 C89.167239,56.6157853 85.8711371,53.4013748 84.0267884,49.7429513 C74.329253,58.3475498 63.6401659,56.9828626 57.6428082,52.9032796 C55.2322432,54.2969242 51.860882,55.4850282 48.5902918,56.066021 C46.7170299,56.3987469 44.7656741,56.5533282 42.9500968,56.3913656 C41.1644248,56.2321001 39.2863441,55.7463543 37.7824338,54.5961504 C36.0901627,53.3018693 35.402341,51.4595274 35.1601223,49.7298921 C34.9235729,48.04057 35.071682,46.1959569 35.2849875,44.5009569 C35.3910025,43.658496 35.5209701,42.7987175 35.6462605,41.9705934 L35.6462605,41.9703095 L35.6462605,41.9700256 L35.6561817,41.9047296 C35.786291,41.0443833 35.9110145,40.2156914 36.0119271,39.4044591 C36.2168705,37.7574375 36.2990746,36.3534307 36.160178,35.1985425 C35.961329,33.5459849 35.4416006,32.6586685 34.9721867,32.1906662 C34.5169459,31.7370007 33.9080685,31.474539 33.101476,31.4431685 C31.3587485,31.3757433 28.9657582,32.444895 27.2492511,34.4824153 C25.7138765,36.3050265 24.3008159,39.7478311 23.1543519,43.7506202 C22.0386435,47.645529 21.2796727,51.6832373 20.8774394,54.3644914 C20.6681024,55.7599813 19.3689938,56.7212526 17.9756339,56.5117375 C16.582274,56.3020804 15.62247,55.0008439 15.831807,53.6054959 C16.1827336,51.2654846 16.790052,47.9450391 17.6641086,44.5108933 C16.2202924,45.5953753 14.6365874,46.7017173 13.0762681,47.7508543 C9.63163193,50.0670184 6.07529732,52.2523065 3.8414428,53.5633374 C2.62582807,54.2767676 1.06288675,53.8682415 0.35051716,52.6507543 C-0.361866604,51.433267 0.0460926157,49.8680074 1.26170734,49.1545772 C3.42152146,47.8868404 6.88792759,45.756912 10.232289,43.5081732 C13.6402168,41.21685 16.7044463,38.9444059 18.2225297,37.3740362 C18.3807018,37.2105122 18.5554564,37.0726808 18.7414078,36.9605419 C18.9277844,35.1901676 19.1155783,33.2928918 19.3096084,31.3318814 L19.3096084,31.3317394 C19.5448822,28.9534022 19.7895104,26.4812374 20.0522801,24.0276677 C20.4256002,20.5401495 20.8339279,17.1150883 21.2999403,14.1505062 C21.7582991,11.2350381 22.2981534,8.58793664 22.9783217,6.75069063 C24.7335214,2.00970137 28.7192875,-0.682440126 32.7642973,0.149970815 Z M149.98851,30.8857391 C149.437176,30.8176041 148.795133,30.7764392 148.038289,30.7764392 C145.969012,30.7764392 144.307922,31.7790173 142.977066,33.2751483 C141.616446,34.8037853 140.767476,36.679485 140.428738,37.8660276 C140.415982,37.9130124 140.400392,37.9591455 140.384801,38.0047107 C140.380549,38.1770355 140.35929,38.3516314 140.318188,38.5262274 C139.501816,42.0256692 139.554256,45.5569074 140.578973,48.0118965 C141.073615,49.1978713 141.763846,50.0651731 142.635493,50.632255 C143.497219,51.1940848 144.723195,51.5830221 146.507591,51.5033893 C149.964416,51.3490919 152.086133,49.6218697 153.455257,47.394849 C154.890994,45.0602317 155.439494,42.2243963 155.480596,40.3736794 L155.482014,40.2790002 L155.490517,40.1846048 C155.659178,38.4305545 155.4154,35.9267353 154.358085,33.9723964 C153.557303,32.4942928 152.273218,31.2516808 149.98851,30.8857391 Z M113.818696,38.2948523 C113.54558,38.7021008 113.245677,39.140436 112.919695,39.6014828 C112.692358,37.2414568 112.747066,34.5768106 113.012104,31.7391299 C113.454305,27.0047413 114.451952,22.0601277 115.446621,17.7213479 C116.494015,13.1533221 118.05476,9.78078172 119.648811,7.78103374 C121.305224,5.70301568 122.415689,5.70054579 122.903811,5.86827144 C123.384847,6.03355559 123.655695,6.2289185 123.835127,6.43311057 C124.015126,6.63802658 124.235234,7.00244945 124.37654,7.7130123 C124.682113,9.24918679 124.533862,11.9338476 123.383288,16.5278498 C121.433633,24.3124152 116.726455,33.7552161 114.005498,37.9791601 C113.952349,38.0617738 113.904444,38.1462328 113.861924,38.2322532 C113.847184,38.2528357 113.832728,38.273702 113.818696,38.2948523 Z M86.7393827,38.9377344 C90.0619883,34.3701345 94.3385869,27.7174617 95.9758663,21.8552969 C97.3784387,16.8336056 98.1512992,12.7727598 98.1670314,9.83429608 C98.1837557,6.73721978 97.3865174,5.9168886 96.9008044,5.68266035 C96.3477691,5.41592603 95.169699,5.27133789 93.3531296,7.51170177 C91.5748276,9.70498153 89.7986517,13.614369 88.6745811,19.2433134 C87.0594119,27.3316473 86.7399496,31.5165556 86.7399496,37.5899389 C86.7399496,37.6374915 86.7386741,37.6847602 86.7361229,37.731603 C86.7396662,37.7976087 86.7408,37.8641823 86.739241,37.9314656 C86.7321544,38.2480095 86.7317292,38.5848519 86.7393827,38.9377344 Z M24.5865461,29.8282272 C27.4366198,26.667473 32.5735271,19.781296 33.6774717,9.90967042 C34.0789964,6.31868636 32.5035118,5.31319833 31.7373127,5.15552259 C30.8380279,4.97043671 28.9065145,5.43663623 27.7623182,8.5272681 C27.2732036,9.84834892 26.7942938,12.0570584 26.3401868,14.9452726 C25.8938751,17.7842308 25.4961773,21.1104962 25.1254083,24.5726058 C24.9403073,26.3015313 24.7614425,28.0713379 24.5865461,29.8282272 Z M58.2339692,46.4978801 C57.060718,44.9744951 56.459494,42.9165343 56.4537832,40.6289018 C56.4461713,37.6049854 57.4948408,34.6592824 59.0419791,32.8805331 C61.0276338,30.597159 63.4716474,30.362661 65.0183605,31.0508245 C65.7956147,31.3966096 66.401941,31.9851257 66.7447888,32.780034 C67.0865029,33.5725292 67.2391474,34.7455867 66.7822059,36.3547082 C65.4449716,41.0653916 61.6411884,44.5103255 58.2339692,46.4978801 Z" id="Shape"></path>
        </g>
    </g>
</svg>